name Walk8.mot
datacolumns 19
datarows 15
range 2.24000000 2.31000000
endheader

                time	   L_ground_force_vx	   L_ground_force_vy	   L_ground_force_vz	   L_ground_force_px	   L_ground_force_py	   L_ground_force_pz	   R_ground_force_vx	   R_ground_force_vy	   R_ground_force_vz	   R_ground_force_px	   R_ground_force_py	   R_ground_force_pz	   L_ground_torque_x	   L_ground_torque_y	   L_ground_torque_z	   R_ground_torque_x	   R_ground_torque_y	   R_ground_torque_z	
          2.24000000	         41.44346584	        933.51696164	         60.66700189	         -0.26416096	          0.00000000	         -0.02869645	          0.00145227	         -0.02781763	         -0.00163019	          0.00000473	          0.00000000	          0.00000257	          0.00000000	         -2.41103658	          0.00000000	          0.00000000	         -0.00014860	          0.00000000	
          2.24500000	         44.35207911	        937.20860227	         61.05963682	         -0.26242801	          0.00000000	         -0.02926134	         -0.00081155	         -0.01331498	          0.00017854	          0.00002068	          0.00000000	          0.00001007	          0.00000000	         -2.33313197	          0.00000000	          0.00000000	          0.00018228	          0.00000000	
          2.25000000	         47.32031264	        940.85472481	         61.48794421	         -0.26067497	          0.00000000	         -0.02984196	         -0.00424161	          0.01094227	          0.00297702	          0.00004300	          0.00000000	          0.00002053	          0.00000000	         -2.25711324	          0.00000000	          0.00000000	          0.00067576	          0.00000000	
          2.25500000	         50.30025224	        944.45275205	         61.94723090	         -0.25889285	          0.00000000	         -0.03043526	         -0.00906727	          0.04741904	          0.00697376	          0.00007249	          0.00000000	          0.00003431	          0.00000000	         -2.18199990	          0.00000000	          0.00000000	          0.00136195	          0.00000000	
          2.26000000	         53.24717996	        947.99993714	         62.43358003	         -0.25707291	          0.00000000	         -0.03103771	         -0.01547406	          0.09845208	          0.01234613	          0.00010955	          0.00000000	          0.00005156	          0.00000000	         -2.10647873	          0.00000000	          0.00000000	          0.00226401	          0.00000000	
          2.26500000	         56.12144306	        951.48597565	         62.94440668	         -0.25520657	          0.00000000	         -0.03164563	         -0.02355629	          0.16589006	          0.01920108	          0.00015382	          0.00000000	          0.00007210	          0.00000000	         -2.02886828	          0.00000000	          0.00000000	          0.00339146	          0.00000000	
          2.27000000	         58.88889939	        954.88676729	         63.47749667	         -0.25328540	          0.00000000	         -0.03225568	         -0.03325440	          0.25059257	          0.02752251	          0.00020389	          0.00000000	          0.00009524	          0.00000000	         -1.94763511	          0.00000000	          0.00000000	          0.00473130	          0.00000000	
          2.27500000	         61.52152347	        958.16951791	         64.03016260	         -0.25130163	          0.00000000	         -0.03286576	         -0.04427624	          0.35177086	          0.03710449	          0.00025682	          0.00000000	          0.00011958	          0.00000000	         -1.86137604	          0.00000000	          0.00000000	          0.00623713	          0.00000000	
          2.28000000	         63.99890451	        961.30235490	         64.59940843	         -0.24924937	          0.00000000	         -0.03347492	         -0.05600297	          0.46616300	          0.04747040	          0.00030769	          0.00000000	          0.00014279	          0.00000000	         -1.76922846	          0.00000000	          0.00000000	          0.00781608	          0.00000000	
          2.28500000	         66.30956164	        964.26041227	         65.18220145	         -0.24712455	          0.00000000	         -0.03408210	         -0.06738266	          0.58705279	          0.05778035	          0.00034906	          0.00000000	          0.00016137	          0.00000000	         -1.67140993	          0.00000000	          0.00000000	          0.00931431	          0.00000000	
          2.29000000	         68.45102302	        967.02923161	         65.77561640	         -0.24492377	          0.00000000	         -0.03468644	         -0.07681774	          0.70316579	          0.06673155	          0.00037053	          0.00000000	          0.00017044	          0.00000000	         -1.56867800	          0.00000000	          0.00000000	          0.01050191	          0.00000000	
          2.29500000	         70.42952805	        969.60746491	         66.37527822	         -0.24264403	          0.00000000	         -0.03528742	         -0.08205682	          0.79750995	          0.07246000	          0.00035831	          0.00000000	          0.00016356	          0.00000000	         -1.46213121	          0.00000000	          0.00000000	          0.01105864	          0.00000000	
          2.30000000	         72.25707989	        972.00940181	         66.97334296	         -0.24028326	          0.00000000	         -0.03588418	         -0.08010663	          0.84627296	          0.07245647	          0.00029506	          0.00000000	          0.00013267	          0.00000000	         -1.35312692	          0.00000000	          0.00000000	          0.01056297	          0.00000000	
          2.30500000	         73.94703958	        974.26791539	         67.55653700	         -0.23784110	          0.00000000	         -0.03647578	         -0.06718615	          0.81794378	          0.06351504	          0.00016005	          0.00000000	          0.00006813	          0.00000000	         -1.24268616	          0.00000000	          0.00000000	          0.00848731	          0.00000000	
          2.31000000	         75.51280288	        976.43629011	         68.10625743	         -0.23531943	          0.00000000	         -0.03706131	         -0.03875228	          0.67289240	          0.04173878	         -0.00007023	          0.00000000	         -0.00004091	          0.00000000	         -1.13167328	          0.00000000	          0.00000000	          0.00420384	          0.00000000	
